Ripper                           : Rodus
Complete name                    : Wwe Summerslam ( 2011 )
Format                           : MPEG-4
Format profile                   : Base Media
Codec ID                         : isom
File size                        : 1.99 GiB
Duration                         : 2h 49mn
Overall bit rate                 : 1 676 Kbps


Video
ID                               : 1
Format                           : AVC
Format/Info                      : Advanced Video Codec
Format profile                   : High@L3.1
Format settings, CABAC           : Yes
Format settings, ReFrames        : 4 frames
Codec ID                         : avc1
Codec ID/Info                    : Advanced Video Coding
Duration                         : 2h 49mn
Bit rate mode                    : Variable
Bit rate                         : 1 479 Kbps
Width                            : 704 pixels
Height                           : 400 pixels
Display aspect ratio             : 16:9
Frame rate mode                  : Constant
Frame rate                       : 29.970 fps
Color space                      : YUV
Chroma subsampling               : 4:2:0
Bit depth                        : 8 bits
Scan type                        : Progressive
Bits/(Pixel*Frame)               : 0.175
Stream size                      : 1.76 GiB (88%)
Writing library                  : x264 core 88 r1471 1144615


Audio
ID                               : 2
Format                           : AAC
Format/Info                      : Advanced Audio Codec
Format profile                   : LC
Codec ID                         : 40
Duration                         : 2h 49mn
Bit rate mode                    : Constant
Bit rate                         : 192 Kbps
Channel(s)                       : 2 channels
Channel positions                : Front: L R
Sampling rate                    : 48.0 KHz
Compression mode                 : Lossy
Stream size                      : 231 MiB (11%)

Credits to PUNJABI_BOY

Screens: 
http://i887.photobucket.com/albums/ac76/desiess/Punjabi/1-36.jpg 
http://i887.photobucket.com/albums/ac76/desiess/Punjabi/2-36.jpg 
http://i887.photobucket.com/albums/ac76/desiess/Punjabi/3-37.jpg 
http://i887.photobucket.com/albums/ac76/desiess/Punjabi/5-36.jpg 
http://i887.photobucket.com/albums/ac76/desiess/Punjabi/6-35.jpg 
http://i887.photobucket.com/albums/ac76/desiess/Punjabi/8-30.jpg 
http://i887.photobucket.com/albums/ac76/desiess/Punjabi/9-25.jpg

 ~ Seed 4 others,Others would seed 4 u ~
         Be a Gentleman!!

    ______            ______   _______    
   (  __  \ |\     /|(  __  \ (  ____ \   
   | (  \  )| )   ( || (  \  )| (    \/   
   | |   ) || |   | || |   ) || (__       
   | |   | || |   | || |   | ||  __)      
   | |   ) || |   | || |   ) || (         
 _ | (__/  )| (___) || (__/  )| (____/\ _ 
(_)(______/ (_______)(______/ (_______/(_)


A simple THANKS goes a long way... :-)
Any comments would b appreciated.